<svg width="320" height="320" viewBox="0 0 320 320" fill="none" xmlns="http://www.w3.org/2000/svg">
  <rect width="320" height="320" rx="32" fill="url(#bg)"/>
  <rect x="34" y="248" width="252" height="24" rx="10" fill="#18263B"/>
  <rect x="52" y="92" width="18" height="156" rx="9" fill="#AFC0D4"/>
  <rect x="250" y="70" width="18" height="178" rx="9" fill="#AFC0D4"/>
  <rect x="64" y="84" width="188" height="14" rx="7" fill="#C9D5E3"/>
  <rect x="86" y="116" width="126" height="108" rx="16" fill="#F5F8FB"/>
  <rect x="95" y="125" width="108" height="90" rx="11" fill="#DDE7F1"/>
  <rect x="116" y="143" width="66" height="54" rx="8" fill="#0E1725"/>
  <rect x="130" y="128" width="38" height="12" rx="6" fill="#39A6DE"/>
  <rect x="112" y="43" width="96" height="30" rx="15" fill="#F2B544"/>
  <rect x="120" y="57" width="80" height="12" rx="6" fill="#D98F12"/>
  <path d="M160 72V112" stroke="#E3EBF4" stroke-width="8" stroke-linecap="round"/>
  <rect x="145" y="104" width="30" height="24" rx="9" fill="#E8EEF5"/>
  <rect x="135" y="122" width="50" height="18" rx="9" fill="#1E314A"/>
  <rect x="109" y="225" width="80" height="14" rx="7" fill="#C8D4E1"/>
  <rect x="100" y="239" width="98" height="9" rx="4.5" fill="#94A9BF"/>
  <circle cx="159" cy="163" r="13" fill="#39A6DE"/>
  <path d="M152 163.5 158 169.5 168 157.5" stroke="#F8FBFD" stroke-width="4" stroke-linecap="round" stroke-linejoin="round"/>
  <circle cx="98" cy="260" r="5" fill="#39A6DE" fill-opacity="0.8"/>
  <circle cx="223" cy="260" r="5" fill="#F2B544" fill-opacity="0.75"/>
  <defs>
    <linearGradient id="bg" x1="31" y1="18" x2="273" y2="290" gradientUnits="userSpaceOnUse">
      <stop stop-color="#162436"/>
      <stop offset="1" stop-color="#0C1625"/>
    </linearGradient>
  </defs>
</svg>